<svg xmlns="http://www.w3.org/2000/svg" version="1.1" xmlns:xlink="http://www.w3.org/1999/xlink" xmlns:svgjs="http://svgjs.dev/svgjs" width="1000" height="1000" viewBox="0 0 1000 1000"><rect width="1000" height="1000" fill="#1f2d5a"></rect><g transform="matrix(0.7,0,0,0.7,149.57575757575756,282.1265587044535)"><svg viewBox="0 0 396 247" data-background-color="#1f2d5a" preserveAspectRatio="xMidYMid meet" height="623" width="1000" xmlns="http://www.w3.org/2000/svg" xmlns:xlink="http://www.w3.org/1999/xlink"><g id="tight-bounds" transform="matrix(1,0,0,1,0.2400000000000091,-0.09999999999999432)"><svg viewBox="0 0 395.52 247.2" height="247.2" width="395.52"><g><svg></svg></g><g><svg viewBox="0 0 395.52 247.2" height="247.2" width="395.52"><g transform="matrix(1,0,0,1,75.54432,112.92921725875594)"><svg viewBox="0 0 244.43135999999998 21.34156548248811" height="21.34156548248811" width="244.43135999999998"><g><svg viewBox="0 0 244.43135999999998 21.34156548248811" height="21.34156548248811" width="244.43135999999998"><g><svg viewBox="0 0 289.1788685443249 25.248518681033943" height="21.34156548248811" width="244.43135999999998"><g transform="matrix(1,0,0,1,0,3.4894841303020865)"><svg viewBox="0 0 244.43135999999998 18.26955042042977" height="18.26955042042977" width="244.43135999999998"><g id="textblocktransform"><svg viewBox="0 0 244.43135999999998 18.26955042042977" height="18.26955042042977" width="244.43135999999998" id="textblock"><g><svg viewBox="0 0 244.43135999999998 18.26955042042977" height="18.26955042042977" width="244.43135999999998"><g transform="matrix(1,0,0,1,0,0)"><svg width="244.43135999999998" viewBox="2.05 -35.5 481.59 36" height="18.26955042042977" data-palette-color="#fbfbfb"><path d="M2.05 0L2.05-35 9.9-35 13.4-9.95 13.5-9.95 17-35 24.85-35 24.85 0 19.65 0 19.65-26.5 19.55-26.5 15.55 0 10.95 0 6.95-26.5 6.85-26.5 6.85 0 2.05 0ZM27.5 0L33.2-35 40.65-35 46.35 0 40.85 0 39.85-6.95 39.85-6.85 33.6-6.85 32.6 0 27.5 0ZM34.25-11.6L39.2-11.6 36.75-28.9 36.65-28.9 34.25-11.6ZM51 0L51-30 45.25-30 45.25-35 62.25-35 62.25-30 56.5-30 56.5 0 51 0ZM69.69 0L69.69-30 63.94-30 63.94-35 80.94-35 80.94-30 75.19-30 75.19 0 69.69 0ZM91.59 0L91.59-35 99.44-35 102.94-9.95 103.04-9.95 106.54-35 114.39-35 114.39 0 109.19 0 109.19-26.5 109.09-26.5 105.09 0 100.49 0 96.49-26.5 96.39-26.5 96.39 0 91.59 0ZM126.44 0.5Q122.39 0.5 120.24-1.8 118.09-4.1 118.09-8.3L118.09-8.3 118.09-26.7Q118.09-30.9 120.24-33.2 122.39-35.5 126.44-35.5L126.44-35.5Q130.49-35.5 132.64-33.2 134.79-30.9 134.79-26.7L134.79-26.7 134.79-8.3Q134.79-4.1 132.64-1.8 130.49 0.5 126.44 0.5L126.44 0.5ZM126.44-4.5Q129.29-4.5 129.29-7.95L129.29-7.95 129.29-27.05Q129.29-30.5 126.44-30.5L126.44-30.5Q123.59-30.5 123.59-27.05L123.59-27.05 123.59-7.95Q123.59-4.5 126.44-4.5L126.44-4.5ZM138.48 0L138.48-35 145.38-35 150.73-14.05 150.83-14.05 150.83-35 155.73-35 155.73 0 150.08 0 143.48-25.55 143.38-25.55 143.38 0 138.48 0ZM159.83 0L159.83-35 165.33-35 165.33 0 159.83 0ZM168.33 0L168.33-4.9 178.53-30 168.83-30 168.83-35 184.43-35 184.43-30.1 174.23-5 184.43-5 184.43 0 168.33 0ZM197.77 0L194.22-35 199.52-35 201.97-8.1 202.07-8.1 204.67-35 210.67-35 213.27-8.1 213.37-8.1 215.82-35 220.57-35 217.02 0 210.17 0 207.67-23.6 207.57-23.6 205.07 0 197.77 0ZM223.37 0L223.37-35 238.37-35 238.37-30 228.87-30 228.87-20.75 236.42-20.75 236.42-15.75 228.87-15.75 228.87-5 238.37-5 238.37 0 223.37 0ZM241.52 0L241.52-35 249.82-35Q254.07-35 256.02-33.02 257.97-31.05 257.97-26.95L257.97-26.95 257.97-25.55Q257.97-22.85 257.09-21.15 256.22-19.45 254.42-18.7L254.42-18.7 254.42-18.6Q258.52-17.2 258.52-11.3L258.52-11.3 258.52-8.3Q258.52-4.25 256.39-2.13 254.27 0 250.17 0L250.17 0 241.52 0ZM247.02-20.75L249.17-20.75Q250.82-20.75 251.64-21.6 252.47-22.45 252.47-24.45L252.47-24.45 252.47-26.4Q252.47-28.3 251.79-29.15 251.12-30 249.67-30L249.67-30 247.02-30 247.02-20.75ZM247.02-5L250.17-5Q251.62-5 252.32-5.78 253.02-6.55 253.02-8.45L253.02-8.45 253.02-11.5Q253.02-13.9 252.19-14.83 251.37-15.75 249.47-15.75L249.47-15.75 247.02-15.75 247.02-5ZM269.71 0L269.71-35 278.11-35Q282.21-35 284.26-32.8 286.31-30.6 286.31-26.35L286.31-26.35 286.31-8.65Q286.31-4.4 284.26-2.2 282.21 0 278.11 0L278.11 0 269.71 0ZM275.21-5L278.01-5Q279.36-5 280.09-5.8 280.81-6.6 280.81-8.4L280.81-8.4 280.81-26.6Q280.81-28.4 280.09-29.2 279.36-30 278.01-30L278.01-30 275.21-30 275.21-5ZM290.01 0L290.01-35 305.01-35 305.01-30 295.51-30 295.51-20.75 303.06-20.75 303.06-15.75 295.51-15.75 295.51-5 305.01-5 305.01 0 290.01 0ZM312.01 0L306.71-35 312.26-35 315.86-7.85 315.96-7.85 319.56-35 324.61-35 319.31 0 312.01 0ZM327.26 0L327.26-35 342.26-35 342.26-30 332.76-30 332.76-20.75 340.31-20.75 340.31-15.75 332.76-15.75 332.76-5 342.26-5 342.26 0 327.26 0ZM345.4 0L345.4-35 350.9-35 350.9-5 359.95-5 359.95 0 345.4 0ZM370.35 0.5Q366.3 0.5 364.15-1.8 362-4.1 362-8.3L362-8.3 362-26.7Q362-30.9 364.15-33.2 366.3-35.5 370.35-35.5L370.35-35.5Q374.4-35.5 376.55-33.2 378.7-30.9 378.7-26.7L378.7-26.7 378.7-8.3Q378.7-4.1 376.55-1.8 374.4 0.5 370.35 0.5L370.35 0.5ZM370.35-4.5Q373.2-4.5 373.2-7.95L373.2-7.95 373.2-27.05Q373.2-30.5 370.35-30.5L370.35-30.5Q367.5-30.5 367.5-27.05L367.5-27.05 367.5-7.95Q367.5-4.5 370.35-4.5L370.35-4.5ZM382.4 0L382.4-35 390.5-35Q394.6-35 396.65-32.8 398.7-30.6 398.7-26.35L398.7-26.35 398.7-22.9Q398.7-18.65 396.65-16.45 394.6-14.25 390.5-14.25L390.5-14.25 387.9-14.25 387.9 0 382.4 0ZM387.9-19.25L390.5-19.25Q391.85-19.25 392.52-20 393.2-20.75 393.2-22.55L393.2-22.55 393.2-26.7Q393.2-28.5 392.52-29.25 391.85-30 390.5-30L390.5-30 387.9-30 387.9-19.25ZM401.7 0L401.7-35 409.55-35 413.05-9.95 413.15-9.95 416.65-35 424.5-35 424.5 0 419.3 0 419.3-26.5 419.2-26.5 415.2 0 410.6 0 406.6-26.5 406.5-26.5 406.5 0 401.7 0ZM428.59 0L428.59-35 443.59-35 443.59-30 434.09-30 434.09-20.75 441.64-20.75 441.64-15.75 434.09-15.75 434.09-5 443.59-5 443.59 0 428.59 0ZM446.74 0L446.74-35 453.64-35 458.99-14.05 459.09-14.05 459.09-35 463.99-35 463.99 0 458.34 0 451.74-25.55 451.64-25.55 451.64 0 446.74 0ZM472.39 0L472.39-30 466.64-30 466.64-35 483.64-35 483.64-30 477.89-30 477.89 0 472.39 0Z" opacity="1" transform="matrix(1,0,0,1,0,0)" fill="#fbfbfb" class="wordmark-text-0" data-fill-palette-color="primary" id="text-0"></path></svg></g></svg></g></svg></g></svg></g><g transform="matrix(1,0,0,1,248.74436238505336,0)"><svg viewBox="0 0 40.434506159271585 25.248518681033943" height="25.248518681033943" width="40.434506159271585"><g><svg xmlns="http://www.w3.org/2000/svg" xmlns:xlink="http://www.w3.org/1999/xlink" version="1.1" x="0" y="0" viewBox="0 18.788999999999998 100.00000000000001 62.442999999999984" enable-background="new 0 0 100 100" xml:space="preserve" width="40.434506159271585" height="25.248518681033943" class="icon-icon-0" data-fill-palette-color="accent" id="icon-0"><g fill="#ff851b" data-fill-palette-color="accent"><g fill="#ff851b" data-fill-palette-color="accent"><path d="M97.938 68.771h-6.316V20.81c0-1.115-0.905-2.021-2.021-2.021H10.399c-1.115 0-2.021 0.906-2.021 2.021v47.961H2.062C0.924 68.771 0 69.694 0 70.832v2.084c0 0.103 0.008 0.204 0.022 0.306 0.527 3.521 3.348 7.447 7.159 7.922 0.083 0.01 0.169 0.017 0.252 0.017l84.51 0.071h0.003c4.404 0 7.604-4.197 8.041-8.085 0.009-0.075 0.013-0.152 0.013-0.23v-2.084C100 69.694 99.076 68.771 97.938 68.771zM12.42 22.831h75.16v45.939H59.985c-0.133 0-0.262 0.016-0.386 0.04H41.16c-0.128-0.025-0.261-0.04-0.396-0.04H12.42V22.831zM91.948 77.107L7.586 77.036c-1.461-0.261-3.024-2.16-3.434-4.143h35.086c0.702 1.246 2.017 2.085 3.519 2.085h15.233c1.502 0 2.816-0.839 3.52-2.085h34.35C95.538 74.926 93.854 77.107 91.948 77.107zM38.84 37.498c-0.814-0.814-2.133-0.814-2.947 0l-8.689 8.689c-0.814 0.814-0.814 2.133 0 2.948l8.689 8.688c0.407 0.407 0.94 0.611 1.474 0.611s1.066-0.204 1.474-0.611c0.814-0.813 0.814-2.133 0-2.947l-7.216-7.215 7.216-7.216C39.654 39.631 39.654 38.312 38.84 37.498zM59.361 57.823c0.406 0.407 0.939 0.611 1.474 0.611 0.533 0 1.066-0.204 1.474-0.611l8.688-8.688c0.814-0.814 0.814-2.133 0-2.948l-8.688-8.689c-0.814-0.814-2.134-0.814-2.947 0-0.814 0.814-0.814 2.133 0 2.947l7.215 7.216-7.215 7.215C58.547 55.69 58.547 57.01 59.361 57.823zM41.793 62.275c0.299 0.148 0.617 0.22 0.931 0.22 0.765 0 1.5-0.422 1.866-1.152l12.506-25.011c0.515-1.03 0.098-2.281-0.933-2.796-1.029-0.513-2.281-0.098-2.797 0.932L40.861 59.479C40.346 60.509 40.763 61.76 41.793 62.275z" fill="#ff851b" data-fill-palette-color="accent"></path></g></g></svg></g></svg></g></svg></g></svg></g></svg></g><g><path d="M245.816 0c68.262 0 123.6 55.338 123.6 123.6 0 68.262-55.338 123.6-123.6 123.6-64.045 0-116.713-48.711-122.977-111.106h0.7c6.26 62.01 58.616 110.41 122.277 110.41 67.878 0 122.904-55.026 122.903-122.904 0-67.878-55.026-122.904-122.903-122.904-63.66 0-116.016 48.4-122.277 110.41h-0.7c6.263-62.395 58.931-111.106 122.977-111.106z" fill="#fbfbfb" stroke="transparent" data-fill-palette-color="tertiary"></path></g></svg></g><defs></defs></svg><rect width="395.52" height="247.2" fill="none" stroke="none" visibility="hidden"></rect></g></svg></g></svg>